<?xml version="1.0" encoding="UTF-8"?>
<svg id="Layer_1" data-name="Layer 1" xmlns="http://www.w3.org/2000/svg" xmlns:xlink="http://www.w3.org/1999/xlink" viewBox="0 0 40 40">
  <defs>
    <style>
      .cls-1 {
        fill: url(#linear-gradient-2);
      }

      .cls-2 {
        fill: #0aa7e0;
      }

      .cls-3 {
        fill: #f9ed24;
      }

      .cls-4 {
        fill: url(#linear-gradient);
      }
    </style>
    <linearGradient id="linear-gradient" x1="1.6" y1="9.53" x2="17.19" y2="9.53" gradientUnits="userSpaceOnUse">
      <stop offset="0" stop-color="#ed1b34"/>
      <stop offset="1" stop-color="#f9ed32"/>
    </linearGradient>
    <linearGradient id="linear-gradient-2" x1="5.94" y1="9.36" x2="6.17" y2="12.4" xlink:href="#linear-gradient"/>
  </defs>
  <rect class="cls-3" width="40" height="40" rx="8.28" ry="8.28"/>
  <path class="cls-2" d="m9.22,32.98v.59c-.08-.04-.15-.08-.21-.11-.51-.24-.56-.09-1.08-.37-1.99-1.07-3.98-2.13-5.96-3.22-.17-.09-.34-.35-.34-.54-.02-4.77-.02-9.53-.01-14.3,0-.11.02-.22.04-.38.15.06.27.09.37.14,2.42,1.29,4.21,2.05,6.63,3.32.24.13.39.26.48.44h0c.07.14.09.31.09.52-.02,4.63-.01,9.26-.01,13.89Z"/>
  <path class="cls-4" d="m17.19,6.3c-2.9,1.57-5.06,3.71-6.42,6.36-.01.03-.03.06-.04.08-2.42,0-4.83,0-7.24.01-1.36,0-1.9-.09-1.88-.59.08-1.96.06-3.92.02-5.87h15.57Z"/>
  <path class="cls-2" d="m38.39,27.05c0,3.47-2.91,6.49-6.37,6.65h-.06c-.11,0-.23-.01-.39-.02v-.7c0-4.36.03-8.72-.03-13.08-.04-3.14-2.37-5.87-5.48-6.56-.45-.1-.9-.15-1.34-.15-2.49,0-4.92,1.46-6.09,3.8-.44.87-.67,1.79-.71,2.76,0,.11,0,.23,0,.34,0,1.42,0,3.34,0,5.29v.35c0,1.42,0,2.85-.01,4.27,0,.18-.16.44-.34.54-1.93,1.06-3.87,2.1-5.81,3.13h-.69v-.5c0-4.43-.09-8.87.02-13.3,0-.42.04-.84.08-1.24.21-2.21.86-4.19,1.93-5.9,1.21-1.94,2.98-3.54,5.29-4.75,2.16-1.13,4.33-1.69,6.46-1.69.11,0,.22,0,.33,0,2.6.07,5.13.98,7.57,2.7,3.68,2.61,5.53,6.31,5.64,10.83.05,2.4.01,4.81,0,7.21Z"/>
  <path class="cls-1" d="m10.76,12.66s-.03.06-.04.08c-2.42,0-4.83,0-7.24.01-1.36,0-1.9-.09-1.88-.59.08-1.96.06-3.92.02-5.87h.73c.97,1.94,3.38,5.43,8.41,6.36Z"/>
</svg>