<?xml version="1.0" encoding="UTF-8"?>
<svg id="Layer_1" data-name="Layer 1" xmlns="http://www.w3.org/2000/svg" xmlns:xlink="http://www.w3.org/1999/xlink" viewBox="0 0 4628.46 1105.42">
  <defs>
    <style>
      .cls-1 {
        fill: url(#linear-gradient-2);
      }

      .cls-2 {
        fill: #0aa7e0;
      }

      .cls-3 {
        fill: #141515;
      }

      .cls-4 {
        fill: url(#linear-gradient);
      }
    </style>
    <linearGradient id="linear-gradient" x1="100.45" y1="228.99" x2="471.9" y2="228.99" gradientUnits="userSpaceOnUse">
      <stop offset="0" stop-color="#ed1b34"/>
      <stop offset="1" stop-color="#f9ed32"/>
    </linearGradient>
    <linearGradient id="linear-gradient-2" x1="203.93" y1="224.98" x2="209.56" y2="297.31" xlink:href="#linear-gradient"/>
  </defs>
  <path class="cls-3" d="m2342.57,381.38c-27.78-26.9-63.69-40.34-107.71-40.34-32.35,0-63.69,7.99-94.14,23.85-30.45,15.86-56.46,38.82-78.15,68.89-21.7,30.07-36.03,64.83-43.14,104.29-2.66,13.58-3.93,28.55-3.93,44.66,0,47.2,14.08,84.62,42.25,112.15,28.16,27.4,63.94,41.23,107.2,41.23,32.99,0,64.58-7.99,94.65-23.85,30.07-15.86,55.95-38.82,77.64-68.89,21.7-30.07,36.03-65.47,43.14-106.32,2.66-13.58,3.93-28.42,3.93-44.53,0-47.32-13.96-84.37-41.74-111.14Zm623.57.89c-28.16-27.4-63.94-41.23-107.21-41.23-32.99,0-64.58,7.87-94.64,23.34-30.07,15.48-55.82,38.19-77.14,67.88-21.44,29.81-35.65,64.7-42.76,104.79-2.54,13.7-3.81,28.55-3.81,44.66,0,47.96,13.83,85.64,41.61,113.17,27.91,27.4,63.44,41.23,106.82,41.23,32.99,0,64.58-7.99,94.65-23.85,30.07-15.86,55.95-38.82,77.64-68.89,21.57-30.07,36.03-65.21,43.14-105.3,2.54-13.57,3.93-28.16,3.93-43.64,0-47.2-14.08-84.62-42.25-112.15Zm0,0c-28.16-27.4-63.94-41.23-107.21-41.23-32.99,0-64.58,7.87-94.64,23.34-30.07,15.48-55.82,38.19-77.14,67.88-21.44,29.81-35.65,64.7-42.76,104.79-2.54,13.7-3.81,28.55-3.81,44.66,0,47.96,13.83,85.64,41.61,113.17,27.91,27.4,63.44,41.23,106.82,41.23,32.99,0,64.58-7.99,94.65-23.85,30.07-15.86,55.95-38.82,77.64-68.89,21.57-30.07,36.03-65.21,43.14-105.3,2.54-13.57,3.93-28.16,3.93-43.64,0-47.2-14.08-84.62-42.25-112.15Zm-623.57-.89c-27.78-26.9-63.69-40.34-107.71-40.34-32.35,0-63.69,7.99-94.14,23.85-30.45,15.86-56.46,38.82-78.15,68.89-21.7,30.07-36.03,64.83-43.14,104.29-2.66,13.58-3.93,28.55-3.93,44.66,0,47.2,14.08,84.62,42.25,112.15,28.16,27.4,63.94,41.23,107.2,41.23,32.99,0,64.58-7.99,94.65-23.85,30.07-15.86,55.95-38.82,77.64-68.89,21.7-30.07,36.03-65.47,43.14-106.32,2.66-13.58,3.93-28.42,3.93-44.53,0-47.32-13.96-84.37-41.74-111.14Zm-1230.51,423.62h-88.3l94.14-531.84h88.3l-94.14,531.84Zm115.45-639.05c-14.21,13.83-30.7,20.81-49.48,20.81-14.21,0-26.01-4.69-35.4-14.08s-14.08-21.19-14.08-35.4c0-19.41,7.1-36.03,21.31-49.99,14.21-13.96,30.83-20.81,49.48-20.81,14.97,0,26.9,4.44,36.03,13.58,9.01,9.01,13.58,20.93,13.58,35.9,0,19.41-7.23,36.03-21.44,49.99Zm566.73,325.55l-55.32,313.5h-87.29l53.41-300.94c2.54-13.58,3.81-27.78,3.81-42.63,0-39.46-10.78-69.52-32.48-90.33-21.7-20.68-51.89-30.96-90.71-30.96-46.56,0-86.27,14.46-118.88,43.64-32.73,29.05-53.92,71.43-63.56,127.12v-1.9l-52.4,295.99h-88.3l94.14-531.84h88.3l-13.57,76.63c21.95-27.78,49.48-49.1,82.47-64.07,32.99-14.84,67.62-22.33,103.78-22.33,55.06,0,98.96,14.72,132.07,44.15,32.99,29.56,49.48,72.32,49.48,128.65,0,20.68-1.65,39.2-4.95,55.32Zm676.47,45.55c-9.77,53.79-29.31,101.62-58.74,143.74-29.43,41.99-65.34,74.73-107.71,97.94-42.37,23.34-87.16,35.02-134.36,35.02s-83.35-10.28-114.06-30.58c-30.7-20.43-52.9-45.8-66.48-76.25l-61.15,350.42h-88.3l137.78-784.18h88.3l-17.51,97.94c23.34-30.32,54.05-55.7,92.23-76.12,38.19-20.43,79.93-30.58,125.22-30.58,41.36,0,78.15,8.63,110.12,25.75,31.97,17.13,56.84,41.74,74.22,73.71,17.51,31.97,26.26,69.78,26.26,113.04,0,18.78-2.03,38.82-5.84,60.14Zm575.48,267.95h-89.32l18.52-99.09c-23.34,31.08-54.05,56.84-92.23,77.26-38.19,20.3-80.31,30.58-126.24,30.58-41.36,0-77.9-8.88-109.62-26.77-31.72-17.76-56.33-43.14-73.71-76.12-17.51-32.99-26.26-71.17-26.26-114.56,0-19.41,2.03-39.08,5.84-59.25,9.77-54.3,29.31-102,58.74-143.11,29.43-41.11,65.34-72.95,107.71-95.53,42.37-22.71,87.54-34,135.37-34s85.13,10.02,115.45,30.07c30.45,20.04,51.51,45.29,63.18,75.74l17.38-97.06h89.32l-94.14,531.84Zm-187.26-463.96c-32.99,0-64.58,7.87-94.64,23.34-30.07,15.48-55.82,38.19-77.14,67.88-21.44,29.81-35.65,64.7-42.76,104.79-2.54,13.7-3.81,28.55-3.81,44.66,0,47.96,13.83,85.64,41.61,113.17,27.91,27.4,63.44,41.23,106.82,41.23,32.99,0,64.58-7.99,94.65-23.85,30.07-15.86,55.95-38.82,77.64-68.89,21.57-30.07,36.03-65.21,43.14-105.3,2.54-13.57,3.93-28.16,3.93-43.64,0-47.2-14.08-84.62-42.25-112.15-28.16-27.4-63.94-41.23-107.21-41.23Zm-624.07,0c-32.35,0-63.69,7.99-94.14,23.85-30.45,15.86-56.46,38.82-78.15,68.89-21.7,30.07-36.03,64.83-43.14,104.29-2.66,13.58-3.93,28.55-3.93,44.66,0,47.2,14.08,84.62,42.25,112.15,28.16,27.4,63.94,41.23,107.2,41.23,32.99,0,64.58-7.99,94.65-23.85,30.07-15.86,55.95-38.82,77.64-68.89,21.7-30.07,36.03-65.47,43.14-106.32,2.66-13.58,3.93-28.42,3.93-44.53,0-47.32-13.96-84.37-41.74-111.14-27.78-26.9-63.69-40.34-107.71-40.34Zm107.71,40.34c-27.78-26.9-63.69-40.34-107.71-40.34-32.35,0-63.69,7.99-94.14,23.85-30.45,15.86-56.46,38.82-78.15,68.89-21.7,30.07-36.03,64.83-43.14,104.29-2.66,13.58-3.93,28.55-3.93,44.66,0,47.2,14.08,84.62,42.25,112.15,28.16,27.4,63.94,41.23,107.2,41.23,32.99,0,64.58-7.99,94.65-23.85,30.07-15.86,55.95-38.82,77.64-68.89,21.7-30.07,36.03-65.47,43.14-106.32,2.66-13.58,3.93-28.42,3.93-44.53,0-47.32-13.96-84.37-41.74-111.14Zm0,0c-27.78-26.9-63.69-40.34-107.71-40.34-32.35,0-63.69,7.99-94.14,23.85-30.45,15.86-56.46,38.82-78.15,68.89-21.7,30.07-36.03,64.83-43.14,104.29-2.66,13.58-3.93,28.55-3.93,44.66,0,47.2,14.08,84.62,42.25,112.15,28.16,27.4,63.94,41.23,107.2,41.23,32.99,0,64.58-7.99,94.65-23.85,30.07-15.86,55.95-38.82,77.64-68.89,21.7-30.07,36.03-65.47,43.14-106.32,2.66-13.58,3.93-28.42,3.93-44.53,0-47.32-13.96-84.37-41.74-111.14Zm1405.18-108.23l-458,782.15h-92.23l150.47-256.15-121.29-526h97.94l90.33,428.95,241.56-428.95h91.22Zm-37.3-224.69h211.11V0H0v724.43c0,210.42,170.58,380.99,380.99,380.99h3386.29c79.29,0,144.76-59.88,153.26-136.89h-227.61c-26.91,0-48.72-21.81-48.72-48.72v-13.83c0-26.87,21.98-48.85,48.85-48.85h228.49v-158.21h-81.2c-26.91,0-48.72-21.81-48.72-48.72v-13.83c0-27.02,21.82-48.85,48.72-48.85h81.2v-158.21h-26.9c-26.91,0-48.72-21.81-48.72-48.72v-13.83c0-26.91,21.81-48.72,48.72-48.72h26.9v-158.21h-211.11c-26.87,0-48.85-21.98-48.85-48.85v-13.7c0-27.02,21.95-48.85,48.85-48.85Z"/>
  <path class="cls-2" d="m282.02,787.7v14.02c-1.89-1.05-3.58-1.89-5.12-2.52-12.27-5.68-13.25-2.17-25.8-8.9-47.39-25.45-94.93-50.69-142.04-76.63-4.07-2.24-7.99-8.41-7.99-12.76-.49-113.58-.42-227.15-.35-340.66,0-2.66.56-5.33,1.05-9.11,3.65,1.4,6.45,2.03,8.83,3.37,57.56,30.71,100.33,48.8,158.03,79.22,5.75,3.02,9.39,6.31,11.43,10.59v.07c1.61,3.37,2.24,7.36,2.24,12.27-.49,110.35-.28,220.7-.28,331.06Z"/>
  <path class="cls-2" d="m489.15,472.65c0,44.73,0,89.46-.07,134.19,0-46.48-.07-92.19-.14-125.99,0-2.73.07-5.47.21-8.2Z"/>
  <path class="cls-4" d="m471.9,152.04c-69.13,37.37-120.59,88.48-153.05,151.65-.35.63-.7,1.33-1.05,1.96-57.56,0-115.05.07-172.61.28-32.39.07-45.22-2.24-44.73-13.95,1.82-46.62,1.47-93.32.56-139.94h370.88Z"/>
  <path class="cls-2" d="m977.04,646.53c-.21,82.59-69.34,154.66-151.86,158.45h-1.33c-2.59,0-5.4-.28-9.25-.49v-16.69c-.07-103.83.63-207.73-.63-311.64-.91-74.88-56.51-139.87-130.68-156.2-10.66-2.38-21.38-3.51-32.04-3.51-59.31,0-117.15,34.7-145.2,90.51-10.38,20.68-15.91,42.63-16.9,65.69-.14,2.73-.21,5.47-.21,8.2.07,33.79.14,79.5.14,125.99v8.41c-.07,33.93-.21,67.8-.35,101.73,0,4.35-3.93,10.52-7.99,12.76-45.92,25.31-92.19,49.92-138.4,74.67h-16.34v-11.85c0-105.58-2.1-211.24.49-316.82.21-10.1.84-19.98,1.82-29.66,5.12-52.65,20.4-99.77,45.92-140.5,28.88-46.2,71.02-84.34,126.13-113.16,51.53-26.99,103.06-40.38,153.82-40.38,2.66,0,5.26.07,7.92.21,61.84,1.61,122.34,23.28,180.32,64.36,87.64,62.12,131.88,150.31,134.4,258,1.26,57.28.35,114.63.21,171.91Z"/>
  <path class="cls-1" d="m318.85,303.69c-.35.63-.7,1.33-1.05,1.96-57.56,0-115.05.07-172.61.28-32.39.07-45.22-2.24-44.73-13.95,1.82-46.62,1.47-93.32.56-139.94h17.39c23.14,46.27,80.42,129.35,200.44,151.65Z"/>
  <path class="cls-3" d="m4336.55,97.31v13.7c0,26.9-21.82,48.85-48.72,48.85h-366.27V48.46h366.27c26.9,0,48.72,21.82,48.72,48.85Z"/>
  <path class="cls-3" d="m4270.64,366.78v13.83c0,26.9-12.71,48.72-28.38,48.72h-320.7v-111.27h320.7c15.67,0,28.38,21.82,28.38,48.72Z"/>
  <rect class="cls-3" x="4023.61" y="857.16" width="494.06" height="111.35" rx="40.98" ry="40.98"/>
  <rect class="cls-3" x="4020.95" y="572.06" width="400.96" height="111.35" rx="40.98" ry="40.98"/>
  <rect class="cls-3" x="4364.22" y="304.42" width="264.24" height="111.35" rx="40.98" ry="40.98"/>
</svg>